<svg width="450" height="450" viewBox="0 0 450 450" fill="none" xmlns="http://www.w3.org/2000/svg">
<path d="M225 450C349.264 450 450 349.264 450 225C450 100.736 349.264 0 225 0C100.736 0 0 100.736 0 225C0 349.264 100.736 450 225 450Z" fill="black"/>
<path d="M100 276.66L121.03 313.049C125.284 321.319 133.79 326.991 143.478 326.991H283.601L254.537 276.66H100Z" fill="#13AFF0"/>
<path d="M350 276.896C350 271.934 348.582 267.208 345.983 263.191L263.752 120.469C259.499 112.435 251.229 107 241.541 107H198.062L324.953 326.754L345.038 292.019C348.819 285.403 350 282.567 350 276.896Z" fill="#13AFF0"/>
<path d="M233.979 240.743L177.505 142.681L120.794 240.743H233.979Z" fill="#13AFF0"/>
</svg>
