<svg width="450" height="450" viewBox="0 0 450 450" fill="none" xmlns="http://www.w3.org/2000/svg">
<g clip-path="url(#clip0_3_7)">
<path d="M225 450C349.264 450 450 349.264 450 225C450 100.736 349.264 0 225 0C100.736 0 0 100.736 0 225C0 349.264 100.736 450 225 450Z" fill="#1976D2"/>
<path d="M202.9 220.6C202.1 220.3 202 219.2 202.8 218.8C208.5 215.8 213 211.5 216.5 206C220.4 199.8 222.4 193.1 222.4 185.7C222.4 178.9 220.8 172.7 217.6 167.3C214.4 161.8 210.5 157.4 205.7 154.1C200.9 150.8 195.5 148.6 189.5 147.6C183.5 146.6 174.3 146 166.8 146H105.8C100.4 146 100 146.5 100 147V302.5C100 303.1 100.4 303.5 105.8 303.5H157.6C172.8 303.4 185.4 303 190.6 302.4C198.9 301.5 205.9 299 211.6 294.9C217.3 290.9 221.8 285.4 225 278.7C228.3 271.9 229.9 265 229.9 257.8C229.9 248.7 227.4 240.8 222.3 234C217.7 228 211.2 223.5 202.9 220.6ZM136.1 173.3C136.1 172.7 136.5 172.3 137.1 172.3H149.3C164 172.3 173 172.5 176.1 172.8C181.3 173.4 185.3 175.3 187.9 178.3C190.5 181.3 191.9 185.3 191.9 190.2C191.9 195.3 190.4 199.4 187.3 202.5C184.2 205.6 180 207.5 174.7 208.1C171.7 208.5 164.2 208.6 151.9 208.6H137.2C136.6 208.6 136.2 208.1 136.2 207.6V173.3H136.1ZM193.2 269.8C190.3 273.1 186.5 275.2 181.8 276.1C178.8 276.7 171.6 277.1 160.3 277.1H137.1C136.5 277.1 136.1 276.6 136.1 276.1V236C136.1 235.4 136.5 235 137.1 235H156.6C170.8 235 180.1 235.8 184.4 237.3C188.7 238.8 191.9 241.2 194.2 244.5C196.5 247.8 197.6 251.8 197.6 256.5C197.6 262 196.1 266.5 193.2 269.8ZM335.2 199.4C324.9 188 310.9 182.3 293.1 182.3C277.3 182.3 264.2 187.7 253.8 198.6C243.4 209.5 238.3 224.6 238.3 243.8C238.3 259.9 242.2 273.2 250.1 283.8C260.1 297 275.5 303.6 296.3 303.6C309.4 303.6 320.4 300.7 329.1 294.8C337.5 289.2 347.5 276 347.9 266.1C347.9 265.4 347.7 264.7 347 264.5L317.8 264.2C317.2 264.1 316.7 264.5 316.5 265C313.5 276.1 303.2 278.2 296.5 278.2C289.2 278.2 283.2 276.8 278.3 271.7C273.6 266.9 271.1 261.6 270.7 253.1C270.7 252.4 271.2 251.9 271.9 251.9H348.8C349.4 251.9 350 251.4 350 250.7C350.3 219.9 345.2 210.5 335.2 199.4ZM317.3 230H272.4C271.7 230 271.2 229.5 271.2 228.8C271.6 222.2 273.5 217.7 277.8 213.1C282.3 208.2 288 205.8 294.9 205.8C301.4 205.8 306.8 208.1 311.3 212.7C315.6 217.1 318.4 222.9 318.4 228.8C318.5 229.5 318 230 317.3 230ZM267.5 167.8H320.7C323.2 167.8 325.3 165.7 325.3 163.2V155.5C325.3 153 323.2 150.9 320.7 150.9H267.5C265 150.9 262.9 153 262.9 155.5V163.2C262.9 165.8 265 167.8 267.5 167.8Z" fill="white"/>
</g>
<defs>
<clipPath id="clip0_3_7">
<rect width="450" height="450" fill="white"/>
</clipPath>
</defs>
</svg>
