<svg width="450" height="450" viewBox="0 0 450 450" fill="none" xmlns="http://www.w3.org/2000/svg">
<path d="M225 450C349.264 450 450 349.264 450 225C450 100.736 349.264 0 225 0C100.736 0 0 100.736 0 225C0 349.264 100.736 450 225 450Z" fill="url(#paint0_linear_3_30)"/>
<path d="M272.8 100H177.3C134.7 100 100.1 134.6 100.1 177.2V272.7C100.1 315.3 134.7 349.9 177.3 349.9H272.8C315.4 349.9 350 315.3 350 272.7V177.2C350 134.6 315.4 100 272.8 100ZM322.1 272.8C322.1 300 300 322.2 272.7 322.2H177.2C150 322.2 127.8 300.1 127.8 272.8V177.3C127.8 150.1 149.9 127.9 177.2 127.9H272.7C299.9 127.9 322.1 150 322.1 177.3V272.8Z" fill="white"/>
<path d="M225 161.1C189.8 161.1 161.1 189.8 161.1 225C161.1 260.2 189.8 288.9 225 288.9C260.2 288.9 288.9 260.2 288.9 225C288.9 189.8 260.2 161.1 225 161.1ZM225 263.8C203.6 263.8 186.2 246.4 186.2 225C186.2 203.6 203.6 186.2 225 186.2C246.4 186.2 263.8 203.6 263.8 225C263.8 246.4 246.4 263.8 225 263.8Z" fill="white"/>
<path d="M293.774 168.105C299.661 167.147 303.657 161.597 302.698 155.71C301.739 149.823 296.189 145.828 290.302 146.786C284.415 147.745 280.42 153.295 281.379 159.182C282.338 165.069 287.887 169.064 293.774 168.105Z" fill="white"/>
<defs>
<linearGradient id="paint0_linear_3_30" x1="53.679" y1="396.321" x2="373.429" y2="76.571" gradientUnits="userSpaceOnUse">
<stop stop-color="#FEE411"/>
<stop offset="0.052" stop-color="#FEDB16"/>
<stop offset="0.138" stop-color="#FEC125"/>
<stop offset="0.248" stop-color="#FE983D"/>
<stop offset="0.376" stop-color="#FE5F5E"/>
<stop offset="0.5" stop-color="#FE2181"/>
<stop offset="1" stop-color="#9000DC"/>
</linearGradient>
</defs>
</svg>
