<svg width="450" height="450" viewBox="0 0 450 450" fill="none" xmlns="http://www.w3.org/2000/svg">
<path d="M225 450C349.264 450 450 349.264 450 225C450 100.736 349.264 0 225 0C100.736 0 0 100.736 0 225C0 349.264 100.736 450 225 450Z" fill="#039BE5"/>
<path d="M95.6407 219.53L317.35 134.046C327.64 130.329 336.627 136.557 333.293 152.116L333.312 152.097L295.562 329.944C292.765 342.553 285.272 345.619 274.79 339.678L217.303 297.31L189.575 324.023C186.509 327.089 183.922 329.676 177.982 329.676L182.063 271.173L288.606 174.92C293.244 170.838 287.572 168.539 281.459 172.601L149.794 255.498L93.0346 237.792C80.7131 233.883 80.4449 225.47 95.6407 219.53Z" fill="white"/>
</svg>
