<svg width="450" height="450" viewBox="0 0 450 450" fill="none" xmlns="http://www.w3.org/2000/svg">
<path d="M225 450C349.264 450 450 349.264 450 225C450 100.736 349.264 0 225 0C100.736 0 0 100.736 0 225C0 349.264 100.736 450 225 450Z" fill="#0077FF"/>
<g clip-path="url(#clip0_1_13)">
<path d="M332.675 295.498C332.372 294.846 332.09 294.305 331.828 293.871C327.49 286.059 319.201 276.471 306.966 265.103L306.708 264.842L306.578 264.715L306.447 264.584H306.316C300.763 259.29 297.247 255.731 295.774 253.909C293.08 250.438 292.476 246.924 293.949 243.364C294.989 240.674 298.897 234.993 305.664 226.314C309.223 221.715 312.042 218.028 314.123 215.251C329.137 195.291 335.646 182.537 333.649 176.982L332.873 175.684C332.352 174.903 331.007 174.188 328.841 173.536C326.669 172.886 323.893 172.778 320.507 173.212L283.021 173.471C282.414 173.255 281.547 173.275 280.417 173.536L278.724 173.928L278.072 174.254L277.554 174.645C277.12 174.904 276.642 175.36 276.121 176.011C275.603 176.66 275.169 177.421 274.823 178.289C270.742 188.789 266.101 198.551 260.894 207.575C257.683 212.956 254.734 217.62 252.041 221.568C249.351 225.515 247.095 228.424 245.274 230.288C243.451 232.154 241.805 233.649 240.327 234.778C238.851 235.908 237.724 236.385 236.944 236.211C236.162 236.036 235.426 235.863 234.729 235.689C233.515 234.908 232.538 233.845 231.802 232.5C231.063 231.155 230.565 229.463 230.305 227.423C230.046 225.383 229.892 223.628 229.849 222.152C229.808 220.678 229.827 218.593 229.915 215.903C230.005 213.212 230.046 211.391 230.046 210.436C230.046 207.138 230.11 203.559 230.239 199.697C230.37 195.836 230.476 192.776 230.565 190.522C230.654 188.266 230.695 185.879 230.695 183.362C230.695 180.846 230.542 178.872 230.239 177.44C229.936 176.006 229.479 174.609 228.876 173.274C228.267 171.929 227.376 170.889 226.207 170.15C225.036 169.413 223.58 168.827 221.847 168.392C217.247 167.351 211.39 166.788 204.273 166.701C188.134 166.528 177.763 167.57 173.164 169.826C171.342 170.779 169.693 172.082 168.218 173.729C166.656 175.639 166.438 176.681 167.566 176.853C172.773 177.633 176.46 179.499 178.629 182.449L179.411 184.012C180.019 185.14 180.627 187.137 181.234 190C181.841 192.863 182.233 196.031 182.405 199.5C182.838 205.836 182.838 211.259 182.405 215.771C181.971 220.284 181.56 223.798 181.169 226.315C180.777 228.831 180.192 230.871 179.411 232.432C178.629 233.994 178.109 234.949 177.848 235.295C177.588 235.642 177.371 235.86 177.199 235.946C176.077 236.378 174.886 236.599 173.684 236.598C172.468 236.598 170.993 235.99 169.258 234.774C167.523 233.559 165.723 231.889 163.857 229.763C161.991 227.636 159.887 224.664 157.543 220.847C155.201 217.029 152.771 212.517 150.254 207.31L148.172 203.534C146.87 201.105 145.092 197.568 142.836 192.927C140.578 188.283 138.583 183.792 136.848 179.453C136.155 177.631 135.113 176.243 133.725 175.289L133.073 174.897C132.64 174.551 131.945 174.183 130.991 173.791C130.028 173.397 129.024 173.113 127.997 172.945L92.3321 173.204C88.6876 173.204 86.2148 174.03 84.9127 175.679L84.3916 176.459C84.1313 176.893 84 177.587 84 178.542C84 179.497 84.2603 180.669 84.7814 182.056C89.9879 194.293 95.6498 206.094 101.767 217.461C107.884 228.829 113.2 237.986 117.712 244.924C122.224 251.867 126.823 258.42 131.509 264.579C136.195 270.74 139.297 274.689 140.815 276.424C142.335 278.162 143.528 279.461 144.396 280.329L147.65 283.452C149.733 285.535 152.791 288.03 156.827 290.936C160.863 293.844 165.331 296.708 170.234 299.53C175.138 302.348 180.842 304.648 187.351 306.426C193.859 308.206 200.194 308.921 206.355 308.576H221.325C224.36 308.314 226.66 307.359 228.224 305.712L228.742 305.059C229.09 304.541 229.416 303.737 229.717 302.654C230.021 301.569 230.173 300.374 230.173 299.075C230.084 295.344 230.368 291.982 231.017 288.988C231.666 285.996 232.405 283.739 233.232 282.22C234.059 280.702 234.992 279.42 236.03 278.382C237.07 277.341 237.811 276.711 238.246 276.494C238.679 276.275 239.024 276.127 239.284 276.038C241.367 275.344 243.818 276.016 246.641 278.057C249.461 280.097 252.107 282.615 254.582 285.607C257.055 288.602 260.026 291.963 263.497 295.694C266.969 299.426 270.006 302.2 272.608 304.025L275.21 305.587C276.948 306.629 279.205 307.584 281.982 308.451C284.754 309.318 287.183 309.535 289.269 309.102L322.59 308.582C325.886 308.582 328.45 308.036 330.269 306.954C332.092 305.869 333.175 304.674 333.524 303.374C333.872 302.073 333.891 300.597 333.59 298.947C333.281 297.3 332.977 296.149 332.675 295.498Z" fill="white"/>
</g>
<defs>
<clipPath id="clip0_1_13">
<rect width="250" height="250" fill="white" transform="translate(84 113)"/>
</clipPath>
</defs>
</svg>
